HIERARCHY
ROOT joint_Root
{
	OFFSET 0.0 0.0 0.0
	CHANNELS 6 Xposition Yposition Zposition Zrotation Xrotation Yrotation 
	JOINT Hips
	{
		OFFSET -0.726466 93.3139 -2.00062
		CHANNELS 6 Xposition Yposition Zposition Zrotation Xrotation Yrotation 
		JOINT Spine
		{
			OFFSET 15.7357 0.0 0.0
			CHANNELS 6 Xposition Yposition Zposition Zrotation Xrotation Yrotation 
			JOINT Chest
			{
				OFFSET 8.98455 -0.406207 0.0
				CHANNELS 6 Xposition Yposition Zposition Zrotation Xrotation Yrotation 
				JOINT Neck
				{
					OFFSET 16.3773 0.0 0.0
					CHANNELS 6 Xposition Yposition Zposition Zrotation Xrotation Yrotation 
					JOINT Head
					{
						OFFSET 6.45672 0.0 0.0
						CHANNELS 6 Xposition Yposition Zposition Zrotation Xrotation Yrotation 
						End Site
						{
							OFFSET 0.0 0.0 0.0
						}
					}
				}
				JOINT Shoulder_L
				{
					OFFSET 12.9942 -0.242716 4.98039
					CHANNELS 6 Xposition Yposition Zposition Zrotation Xrotation Yrotation 
					JOINT UpperArm_L
					{
						OFFSET 5.34809 0.0 0.0
						CHANNELS 6 Xposition Yposition Zposition Zrotation Xrotation Yrotation 
						JOINT LowerArm_L
						{
							OFFSET 24.3286 1.87007e-05 0.0
							CHANNELS 6 Xposition Yposition Zposition Zrotation Xrotation Yrotation 
							JOINT Hand_L
							{
								OFFSET 22.2916 0.0 0.0
								CHANNELS 6 Xposition Yposition Zposition Zrotation Xrotation Yrotation 
								End Site
								{
									OFFSET 0.0 0.0 0.0
								}
							}
						}
					}
				}
				JOINT Shoulder_R
				{
					OFFSET 12.9945 -0.242716 -4.98039
					CHANNELS 6 Xposition Yposition Zposition Zrotation Xrotation Yrotation 
					JOINT UpperArm_R
					{
						OFFSET -5.34813 0.0 0.0
						CHANNELS 6 Xposition Yposition Zposition Zrotation Xrotation Yrotation 
						JOINT LowerArm_R
						{
							OFFSET -24.3289 0.000322201 0.0
							CHANNELS 6 Xposition Yposition Zposition Zrotation Xrotation Yrotation 
							JOINT Hand_R
							{
								OFFSET -22.2915 -0.000108084 0.0
								CHANNELS 6 Xposition Yposition Zposition Zrotation Xrotation Yrotation 
								End Site
								{
									OFFSET 0.0 0.0 0.0
								}
							}
						}
					}
				}
			}
		}
		JOINT UpperLeg_L
		{
			OFFSET -2.19248 -6.46944 0.0
			CHANNELS 6 Xposition Yposition Zposition Zrotation Xrotation Yrotation 
			JOINT LowerLeg_L
			{
				OFFSET 39.0811 0.0 -1.23785e-05
				CHANNELS 6 Xposition Yposition Zposition Zrotation Xrotation Yrotation 
				JOINT Foot_L
				{
					OFFSET 40.9854 0.0 -1.26872e-05
					CHANNELS 6 Xposition Yposition Zposition Zrotation Xrotation Yrotation 
					JOINT Toes_L
					{
						OFFSET 11.7543 0.0 0.0
						CHANNELS 6 Xposition Yposition Zposition Zrotation Xrotation Yrotation 
						End Site
						{
							OFFSET 0.0 0.0 0.0
						}
					}
				}
			}
		}
		JOINT UpperLeg_R
		{
			OFFSET -2.19251 6.46944 0.0
			CHANNELS 6 Xposition Yposition Zposition Zrotation Xrotation Yrotation 
			JOINT LowerLeg_R
			{
				OFFSET -39.0811 -0.00228153 -0.0401928
				CHANNELS 6 Xposition Yposition Zposition Zrotation Xrotation Yrotation 
				JOINT Foot_R
				{
					OFFSET -40.9854 0.0 0.0
					CHANNELS 6 Xposition Yposition Zposition Zrotation Xrotation Yrotation 
					JOINT Toes_R
					{
						OFFSET -11.7543 0.0 0.0
						CHANNELS 6 Xposition Yposition Zposition Zrotation Xrotation Yrotation 
						End Site
						{
							OFFSET 0.0 0.0 0.0
						}
					}
				}
			}
		}
	}
}
MOTION
Frames:	4
Frame Time:	0.0333333
0.000000 0.000000 0.000000 0.000000 0.000000 -0.000000 0.059737 92.579300 -2.420960 87.391800 -4.124690 2.717170 15.735700 0.000005 -0.000001 89.861500 86.216500 -90.152100 8.984550 -0.406207 -0.000000 -0.199076 0.001903 -0.580670 16.377300 -0.000001 -0.000001 2.282410 -1.486160 2.106950 6.456720 -0.000001 -0.000000 2.485660 -1.745190 -2.806310 12.994200 -0.242716 4.980390 -89.712700 -0.848163 -71.284000 5.348090 -0.000007 -0.000001 -67.882800 38.065200 -13.190600 24.328600 0.000019 0.000005 1.462100 3.527640 -22.529000 22.291600 -0.000001 0.000005 4.889590 5.510960 -6.981560 12.994500 -0.242716 -4.980390 90.447300 -1.255050 -70.381300 -5.348130 -0.000001 -0.000004 -79.345300 -30.275000 -100.191000 -24.328900 0.000322 -0.000009 16.413100 -0.024260 -90.083400 -22.291500 -0.000108 -0.000004 23.812900 5.321030 -0.525626 -2.192480 -6.469440 -0.000000 -175.825000 -6.420280 -3.869690 39.081100 -0.000007 -0.000012 -0.073743 0.182803 21.969200 40.985400 -0.000006 -0.000013 0.042550 1.497060 -65.474900 11.754300 -0.000000 0.000003 -0.000041 -0.000473 -16.596000 -2.192510 6.469440 -0.000001 -179.251000 11.380000 178.492000 -39.081100 -0.002282 -0.040193 0.025754 -0.068285 18.183900 -40.985400 0.000008 0.000006 4.965990 7.457770 -64.329000 -11.754300 -0.000006 -0.000006 -0.006498 -0.075297 -19.638000
0.000000 0.000000 0.000000 0.000000 0.000000 -0.000000 0.054806 92.589800 -2.410050 87.409500 -4.011470 2.673590 15.735700 0.000005 -0.000001 89.775100 86.220100 -90.060400 8.984550 -0.406207 -0.000000 -0.206166 -0.009817 -0.570171 16.377300 -0.000001 -0.000001 2.284320 -1.483970 2.113510 6.456720 -0.000001 -0.000000 2.515970 -1.734580 -2.852730 12.994200 -0.242716 4.980390 -89.712700 -0.848053 -71.285400 5.348090 -0.000007 -0.000001 -67.932200 37.995700 -13.097600 24.328600 0.000019 0.000005 1.485440 3.576090 -22.574100 22.291600 -0.000001 0.000005 4.845250 5.510640 -6.968240 12.994500 -0.242716 -4.980390 90.448900 -1.252870 -70.286500 -5.348130 -0.000001 -0.000004 -79.255300 -30.422700 -100.312000 -24.328900 0.000322 -0.000009 16.274500 -0.096716 -90.332300 -22.291500 -0.000108 -0.000004 23.709100 5.318790 -0.460891 -2.192480 -6.469440 -0.000000 -175.840000 -6.368820 -3.869690 39.081100 -0.000007 -0.000012 -0.074495 0.185565 21.873100 40.985400 -0.000006 -0.000013 0.053409 1.582110 -65.431000 11.754300 -0.000000 0.000003 -0.000045 -0.000512 -16.597500 -2.192510 6.469440 -0.000001 -179.254000 11.415800 178.467000 -39.081100 -0.002282 -0.040193 0.025361 -0.067219 18.150700 -40.985400 0.000008 0.000006 4.943850 7.396970 -64.275400 -11.754300 -0.000006 -0.000006 -0.006341 -0.073902 -19.581100
0.000000 0.000000 0.000000 0.000000 0.000000 -0.000000 0.048816 92.581600 -2.398990 87.421800 -3.884490 2.666030 15.735700 0.000005 -0.000001 89.411500 86.207700 -89.684000 8.984550 -0.406207 -0.000000 -0.181937 -0.058986 -0.544880 16.377300 -0.000001 -0.000001 2.324210 -1.516750 2.128650 6.456720 -0.000001 -0.000000 2.446240 -1.738090 -2.902970 12.994200 -0.242716 4.980390 -89.717200 -0.833935 -71.268400 5.348090 -0.000007 -0.000001 -67.971600 37.990400 -13.005000 24.328600 0.000019 0.000005 1.522250 3.651090 -22.650700 22.291600 -0.000001 0.000005 4.811010 5.510510 -6.962800 12.994500 -0.242716 -4.980390 90.457000 -1.271030 -70.221700 -5.348130 -0.000001 -0.000004 -79.146200 -30.597200 -100.391000 -24.328900 0.000322 -0.000009 16.187000 -0.162946 -90.562300 -22.291500 -0.000108 -0.000004 23.849600 5.322360 -0.564018 -2.192480 -6.469440 -0.000000 -175.860000 -6.283930 -3.924720 39.081100 -0.000007 -0.000012 -0.073735 0.183128 21.931700 40.985400 -0.000006 -0.000013 0.059366 1.598750 -65.451700 11.754300 -0.000000 0.000003 -0.000047 -0.000535 -16.598300 -2.192510 6.469440 -0.000001 -179.262000 11.477200 178.466000 -39.081100 -0.002282 -0.040193 0.025600 -0.067825 18.181400 -40.985400 0.000008 0.000006 4.938050 7.308940 -64.331800 -11.754300 -0.000006 -0.000006 -0.006307 -0.073603 -19.568900
0.000000 0.000000 0.000000 0.000000 0.000000 -0.000000 0.048617 92.590800 -2.395120 87.449900 -3.737730 2.642910 15.735700 0.000005 -0.000001 89.143500 86.194500 -89.407700 8.984550 -0.406207 -0.000000 -0.156002 -0.095479 -0.528147 16.377300 -0.000001 -0.000001 2.329100 -1.567730 2.163110 6.456720 -0.000001 -0.000000 2.425530 -1.736510 -2.908500 12.994200 -0.242716 4.980390 -89.718900 -0.832311 -71.334500 5.348090 -0.000007 -0.000001 -68.003500 38.065000 -12.944000 24.328600 0.000019 0.000005 1.520840 3.644530 -22.668300 22.291600 -0.000001 0.000005 4.848080 5.511140 -6.988720 12.994500 -0.242716 -4.980390 90.461500 -1.275590 -70.107000 -5.348130 -0.000001 -0.000004 -78.981000 -30.741300 -100.375000 -24.328900 0.000322 -0.000009 16.058800 -0.231363 -90.804700 -22.291500 -0.000108 -0.000004 23.904700 5.320610 -0.513358 -2.192480 -6.469440 -0.000000 -175.876000 -6.247810 -3.923220 39.081100 -0.000007 -0.000012 -0.075610 0.188606 21.845300 40.985400 -0.000006 -0.000013 0.072653 1.713490 -65.400200 11.754300 -0.000000 0.000003 -0.000048 -0.000545 -16.598700 -2.192510 6.469440 -0.000001 -179.274000 11.500000 178.445000 -39.081100 -0.002282 -0.040193 0.025717 -0.068189 18.179700 -40.985400 0.000008 0.000006 4.932410 7.182640 -64.290200 -11.754300 -0.000006 -0.000006 -0.006456 -0.074921 -19.622600
